<svg width="17" height="18" viewBox="0 0 17 18" fill="none" xmlns="http://www.w3.org/2000/svg">
<path fill-rule="evenodd" clip-rule="evenodd" d="M3.83871 4.50555C3.83871 2.0172 5.92564 0 8.5 0C11.0744 0 13.1613 2.0172 13.1613 4.50555C13.1613 6.9939 11.0744 9.0111 8.5 9.0111C5.92564 9.0111 3.83871 6.9939 3.83871 4.50555ZM8.5 1.59019C6.83424 1.59019 5.48387 2.89544 5.48387 4.50555C5.48387 6.11566 6.83424 7.42091 8.5 7.42091C10.1658 7.42091 11.5161 6.11566 11.5161 4.50555C11.5161 2.89544 10.1658 1.59019 8.5 1.59019Z" fill="#F6CA47"/>
<path fill-rule="evenodd" clip-rule="evenodd" d="M4.1129 12.1915C2.75001 12.1915 1.64516 13.2594 1.64516 14.5768V15.8365C1.64516 15.8557 1.65954 15.8721 1.67913 15.8751C6.19647 16.588 10.8035 16.588 15.3209 15.8751C15.3405 15.8721 15.3548 15.8557 15.3548 15.8365V14.5768C15.3548 13.2594 14.25 12.1915 12.8871 12.1915H12.5132C12.4843 12.1915 12.4556 12.1959 12.4281 12.2046L11.4789 12.5042C9.54324 13.1151 7.45676 13.1151 5.52114 12.5042L4.57187 12.2046C4.54439 12.1959 4.51567 12.1915 4.48676 12.1915H4.1129ZM0 14.5768C0 12.3812 1.84141 10.6013 4.1129 10.6013H4.48676C4.68911 10.6013 4.89018 10.6322 5.08253 10.6929L6.0318 10.9925C7.6356 11.4987 9.3644 11.4987 10.9682 10.9925L11.9175 10.6929C12.1098 10.6322 12.3109 10.6013 12.5132 10.6013H12.8871C15.1586 10.6013 17 12.3812 17 14.5768V15.8365C17 16.635 16.4013 17.3159 15.586 17.4446C10.8931 18.1851 6.10695 18.1851 1.41404 17.4446C0.598711 17.3159 0 16.635 0 15.8365V14.5768Z" fill="#F6CA47"/>
</svg>
