<svg width="16" height="19" viewBox="0 0 16 19" fill="none" xmlns="http://www.w3.org/2000/svg">
<path d="M8.66732 11.8768V13.6185C7.91309 13.3518 7.10588 13.27 6.31349 13.38C5.52109 13.4899 4.76665 13.7884 4.11351 14.2503C3.46037 14.7123 2.9276 15.3242 2.55995 16.0347C2.1923 16.7452 2.0005 17.5335 2.00065 18.3335L0.333985 18.3327C0.333726 17.3151 0.566419 16.3109 1.01423 15.3972C1.46205 14.4834 2.1131 13.6843 2.9175 13.061C3.7219 12.4378 4.6583 12.0069 5.65495 11.8015C6.65159 11.5961 7.68204 11.6216 8.66732 11.876V11.8768ZM7.00065 10.8335C4.23815 10.8335 2.00065 8.596 2.00065 5.8335C2.00065 3.071 4.23815 0.833496 7.00065 0.833496C9.76315 0.833496 12.0007 3.071 12.0007 5.8335C12.0007 8.596 9.76315 10.8335 7.00065 10.8335ZM7.00065 9.16683C8.84232 9.16683 10.334 7.67516 10.334 5.8335C10.334 3.99183 8.84232 2.50016 7.00065 2.50016C5.15898 2.50016 3.66732 3.99183 3.66732 5.8335C3.66732 7.67516 5.15898 9.16683 7.00065 9.16683ZM12.489 14.1668L10.9648 12.6435L12.144 11.4643L15.679 15.0002L12.144 18.536L10.9648 17.3568L12.489 15.8335H9.50065V14.1668H12.489Z" fill="white"/>
</svg>
