<svg width="51" height="34" viewBox="0 0 51 34" fill="none" xmlns="http://www.w3.org/2000/svg">
<rect x="0.5" y="0.5" width="50" height="33" rx="5.5" fill="white" stroke="#D9D9D9"/>
<path fill-rule="evenodd" clip-rule="evenodd" d="M12.162 12.6551C12.847 12.7113 13.5319 12.3181 13.9599 11.8196C14.3809 11.307 14.6591 10.6189 14.5878 9.91675C13.9813 9.94483 13.2322 10.3099 12.8041 10.8225C12.4117 11.2649 12.0764 11.981 12.162 12.6551ZM20.3097 21.6987V10.7523H24.4834C26.638 10.7523 28.1434 12.2127 28.1434 14.3473C28.1434 16.4818 26.6095 17.9563 24.4263 17.9563H22.0363V21.6987H20.3097ZM14.5806 12.7885C13.9772 12.7543 13.4266 12.9671 12.9819 13.139C12.6957 13.2495 12.4534 13.3432 12.269 13.3432C12.0621 13.3432 11.8097 13.2445 11.5264 13.1338C11.1552 12.9886 10.7307 12.8227 10.2856 12.8306C9.26535 12.8447 8.31646 13.4134 7.79564 14.3192C6.72545 16.1307 7.51739 18.8129 8.5519 20.2874C9.05845 21.0176 9.66489 21.8181 10.464 21.79C10.8155 21.7769 11.0684 21.6713 11.3301 21.562C11.6314 21.4362 11.9444 21.3055 12.4331 21.3055C12.9049 21.3055 13.2042 21.4328 13.4915 21.555C13.7647 21.6712 14.027 21.7828 14.4165 21.7759C15.2441 21.7619 15.7649 21.0457 16.2715 20.3155C16.8181 19.5317 17.0584 18.7669 17.0948 18.6508L17.0991 18.6374C17.0982 18.6365 17.0915 18.6334 17.0795 18.6281C16.8968 18.5457 15.5001 17.9165 15.4867 16.229C15.4732 14.8126 16.5945 14.095 16.771 13.982C16.7818 13.9752 16.789 13.9705 16.7923 13.9681C16.0788 12.9289 14.9659 12.8166 14.5806 12.7885ZM31.297 21.783C32.3814 21.783 33.3874 21.2423 33.844 20.3857H33.8797V21.6987H35.4778V16.2501C35.4778 14.6703 34.1936 13.6521 32.2173 13.6521C30.3838 13.6521 29.0282 14.6843 28.9783 16.1026H30.5336C30.662 15.4286 31.297 14.9862 32.1674 14.9862C33.2233 14.9862 33.8155 15.4707 33.8155 16.3624V16.9663L31.6608 17.0926C29.656 17.212 28.5716 18.0195 28.5716 19.4238C28.5716 20.8421 29.6917 21.783 31.297 21.783ZM31.7606 20.484C30.8403 20.484 30.2552 20.0487 30.2552 19.3816C30.2552 18.6935 30.8189 18.2933 31.8962 18.2301L33.8154 18.1108V18.7286C33.8154 19.7538 32.9307 20.484 31.7606 20.484ZM40.7787 22.127C40.0867 24.0439 39.2947 24.6758 37.611 24.6758C37.4826 24.6758 37.0545 24.6617 36.9546 24.6337V23.3206C37.0616 23.3347 37.3256 23.3487 37.4612 23.3487C38.2246 23.3487 38.6526 23.0328 38.9166 22.2113L39.0736 21.7268L36.1484 13.7575H37.9534L39.9868 20.2242H40.0225L42.0558 13.7575H43.8109L40.7787 22.127ZM22.0361 12.1847H24.0266C25.5249 12.1847 26.381 12.9711 26.381 14.3543C26.381 15.7375 25.5249 16.5309 24.0195 16.5309H22.0361V12.1847Z" fill="black"/>
</svg>
