<svg width="16" height="20" viewBox="0 0 16 20" fill="none" xmlns="http://www.w3.org/2000/svg">
<path fill-rule="evenodd" clip-rule="evenodd" d="M8.58319 1C8.58319 0.447715 8.13548 0 7.58319 0C7.03091 0 6.58319 0.447715 6.58319 1V1.75H6.02577C3.8007 1.75 1.9591 3.48001 1.82021 5.70074L1.5992 9.2342C1.51494 10.5814 1.06266 11.8797 0.291595 12.9876C-0.405087 13.9886 0.215133 15.3712 1.42606 15.5165L4.83319 15.9254V17C4.83319 18.5188 6.06441 19.75 7.58319 19.75C9.10197 19.75 10.3332 18.5188 10.3332 17V15.9254L13.7403 15.5165C14.9512 15.3712 15.5715 13.9886 14.8748 12.9876C14.1037 11.8797 13.6514 10.5814 13.5672 9.2342L13.3462 5.70074C13.2073 3.48001 11.3657 1.75 9.1406 1.75H8.58319V1ZM6.02577 3.25C4.59277 3.25 3.40673 4.36417 3.31728 5.79438L3.09628 9.32784C2.99488 10.949 2.45063 12.5112 1.52278 13.8444C1.47243 13.9168 1.51725 14.0167 1.60478 14.0272L5.34244 14.4757C6.83093 14.6543 8.33544 14.6543 9.82393 14.4757L13.5616 14.0272C13.6491 14.0167 13.6939 13.9168 13.6436 13.8444C12.7157 12.5112 12.1715 10.949 12.0701 9.32784L11.8491 5.79438C11.7596 4.36417 10.5736 3.25 9.1406 3.25H6.02577ZM7.58319 18.25C6.89283 18.25 6.33319 17.6904 6.33319 17V16.25H8.83319V17C8.83319 17.6904 8.27355 18.25 7.58319 18.25Z" fill="black" fill-opacity="0.9"/>
</svg>
