<svg width="20" height="22" viewBox="0 0 20 22" fill="none" xmlns="http://www.w3.org/2000/svg">
<path fill-rule="evenodd" clip-rule="evenodd" d="M8.42247 0.0625C7.45545 0.0625 6.6488 0.801538 6.56436 1.76486C6.3878 3.77896 6.34312 5.80205 6.43045 7.82117C6.32504 7.82822 6.21964 7.83559 6.11425 7.84327L4.25237 7.979C3.06231 8.06575 2.39706 9.3927 3.03953 10.3982C4.40975 12.5426 6.17532 14.4068 8.24212 15.8915L8.98804 16.4273C9.59282 16.8617 10.4074 16.8617 11.0122 16.4273L11.7581 15.8915C13.8249 14.4068 15.5904 12.5426 16.9607 10.3982C17.6031 9.3927 16.9379 8.06575 15.7478 7.979L13.8859 7.84328C13.7806 7.83559 13.6752 7.82822 13.5697 7.82117C13.6571 5.80204 13.6124 3.77896 13.4358 1.76485C13.3514 0.801536 12.5447 0.0625 11.5777 0.0625H8.42247ZM8.35196 8.64341C8.20982 6.40938 8.23637 4.16772 8.43141 1.9375H11.5688C11.7638 4.16772 11.7904 6.40938 11.6482 8.64341C11.6323 8.89387 11.7174 9.14026 11.8846 9.32744C12.0518 9.51462 12.287 9.62695 12.5377 9.6393C12.9419 9.65921 13.3459 9.68388 13.7496 9.71331L15.1018 9.81188C13.9024 11.5785 12.4005 13.1213 10.6642 14.3687L10.0001 14.8457L9.33603 14.3687C7.59965 13.1213 6.09779 11.5785 4.89837 9.81188L6.25057 9.71331C6.65431 9.68388 7.05831 9.65921 7.46248 9.6393C7.71315 9.62695 7.94839 9.51462 8.11557 9.32744C8.28275 9.14026 8.3679 8.89387 8.35196 8.64341Z" fill="black"/>
<path d="M2.1875 17.25C2.1875 16.7322 1.76777 16.3125 1.25 16.3125C0.732233 16.3125 0.3125 16.7322 0.3125 17.25V19.75C0.3125 20.9581 1.29188 21.9375 2.5 21.9375H17.5C18.7081 21.9375 19.6875 20.9581 19.6875 19.75V17.25C19.6875 16.7322 19.2678 16.3125 18.75 16.3125C18.2322 16.3125 17.8125 16.7322 17.8125 17.25V19.75C17.8125 19.9226 17.6726 20.0625 17.5 20.0625H2.5C2.32741 20.0625 2.1875 19.9226 2.1875 19.75V17.25Z" fill="black"/>
</svg>
