<svg width="53" height="53" viewBox="0 0 53 53" fill="none" xmlns="http://www.w3.org/2000/svg">
<path d="M44.7188 0H8.28125C3.70764 0 0 3.70764 0 8.28125V44.7188C0 49.2924 3.70764 53 8.28125 53H44.7188C49.2924 53 53 49.2924 53 44.7188V8.28125C53 3.70764 49.2924 0 44.7188 0Z" fill="#1877F2"/>
<path d="M39.75 26.5C39.75 19.2125 33.7875 13.25 26.5 13.25C19.2125 13.25 13.25 19.2125 13.25 26.5C13.25 33.125 18.0531 38.5906 24.3469 39.5844V30.3094H21.0344V26.5H24.3469V23.5187C24.3469 20.2062 26.3344 18.3844 29.3156 18.3844C30.8063 18.3844 32.2969 18.7156 32.2969 18.7156V22.0281H30.6406C28.9844 22.0281 28.4875 23.0219 28.4875 24.0156V26.5H32.1312L31.4688 30.3094H28.3219V39.75C34.9469 38.7563 39.75 33.125 39.75 26.5Z" fill="white"/>
</svg>
