<svg width="29" height="20" viewBox="0 0 29 20" fill="none" xmlns="http://www.w3.org/2000/svg">
<path d="M1 2V18H28V2H1Z" fill="#012169"/>
<path d="M1 2L28 18L1 2ZM28 2L1 18L28 2Z" fill="black"/>
<path d="M27.3965 19.4319L14.4995 11.7892L1.60248 19.4319L0.396484 16.5679L11.48 9.99987L0.396484 3.43187L1.60248 0.567871L14.4995 8.21054L27.3965 0.567871L28.6025 3.43187L17.519 9.99987L28.6025 16.5679L27.3965 19.4319Z" fill="white"/>
<path d="M1 2L28 18L1 2ZM28 2L1 18L28 2Z" fill="black"/>
<path d="M27.5977 18.9543L14.5004 11.1916L1.40316 18.9543L0.597656 17.0449L12.4889 9.99959L0.597656 2.95426L1.40316 1.04492L14.5004 8.80759L27.5977 1.04492L28.4032 2.95426L16.5119 9.99959L28.4032 17.0449L27.5977 18.9543Z" fill="#C8102E"/>
<path d="M14.5 2V18V2ZM1 10H28H1Z" fill="black"/>
<path d="M16.75 18H12.25V12.6667H1V7.33333H12.25V2H16.75V7.33333H28V12.6667H16.75V18Z" fill="white"/>
<path d="M14.5 2V18V2ZM1 10H28H1Z" fill="black"/>
<path d="M15.85 18H13.15V11.6H1V8.4H13.15V2H15.85V8.4H28V11.6H15.85V18Z" fill="#C8102E"/>
</svg>
