<svg width="19" height="19" viewBox="0 0 19 19" fill="none" xmlns="http://www.w3.org/2000/svg">
<path d="M9.5 18.25C4.66738 18.25 0.75 14.3326 0.75 9.5C0.75 4.66738 4.66738 0.75 9.5 0.75C14.3326 0.75 18.25 4.66738 18.25 9.5C18.25 14.3326 14.3326 18.25 9.5 18.25ZM7.49625 16.2086C6.63299 14.3775 6.13289 12.3964 6.02363 10.375H2.55425C2.72451 11.7215 3.28218 12.9896 4.1595 14.0252C5.03681 15.0608 6.19601 15.8194 7.49625 16.2086ZM7.77625 10.375C7.90837 12.5091 8.51825 14.5138 9.5 16.283C10.5083 14.467 11.0973 12.4483 11.2238 10.375H7.77625ZM16.4457 10.375H12.9764C12.8671 12.3964 12.367 14.3775 11.5037 16.2086C12.804 15.8194 13.9632 15.0608 14.8405 14.0252C15.7178 12.9896 16.2755 11.7215 16.4457 10.375ZM2.55425 8.625H6.02363C6.13289 6.60356 6.63299 4.62248 7.49625 2.79138C6.19601 3.18064 5.03681 3.93916 4.1595 4.97476C3.28218 6.01036 2.72451 7.27846 2.55425 8.625ZM7.77713 8.625H11.2229C11.0967 6.55177 10.508 4.53309 9.5 2.717C8.49172 4.53302 7.90274 6.55171 7.77625 8.625H7.77713ZM11.5037 2.79138C12.367 4.62248 12.8671 6.60356 12.9764 8.625H16.4457C16.2755 7.27846 15.7178 6.01036 14.8405 4.97476C13.9632 3.93916 12.804 3.18064 11.5037 2.79138Z" fill="#F6CA47"/>
</svg>
