<svg width="52" height="35" viewBox="0 0 52 35" fill="none" xmlns="http://www.w3.org/2000/svg">
<rect x="0.5" y="0.5" width="51" height="34" rx="5.5" fill="white" stroke="#D9D9D9"/>
<path fill-rule="evenodd" clip-rule="evenodd" d="M24.5593 22.9805V18.575H26.8758C27.825 18.575 28.6262 18.2627 29.2794 17.647L29.4361 17.4909C30.6292 16.2161 30.5508 14.2301 29.2794 13.0507C28.6436 12.4262 27.7728 12.088 26.8758 12.1054H23.1572V22.9805H24.5593ZM24.5595 17.2394V13.4409H26.9112C27.4164 13.4409 27.8954 13.6317 28.2525 13.9786C29.0103 14.7071 29.0277 15.9212 28.2961 16.6757C27.939 17.0486 27.4338 17.2567 26.9112 17.2394H24.5595ZM35.9763 16.1207C35.3754 15.5743 34.5568 15.2968 33.5205 15.2968C32.1881 15.2968 31.1866 15.7825 30.5247 16.7451L31.7614 17.5169C32.2142 16.8578 32.8325 16.5283 33.6163 16.5283C34.1127 16.5283 34.5917 16.7104 34.9661 17.04C35.3319 17.3522 35.5409 17.8031 35.5409 18.2801V18.601C35.001 18.3061 34.3217 18.15 33.4857 18.15C32.5103 18.15 31.7265 18.3755 31.143 18.8351C30.5596 19.2948 30.2635 19.9018 30.2635 20.6737C30.2461 21.3761 30.5509 22.0439 31.0908 22.4949C31.6394 22.9805 32.3361 23.2233 33.1547 23.2233C34.1214 23.2233 34.8877 22.7984 35.4712 21.9485H35.5322V22.9805H36.8733V18.3928C36.8733 17.4302 36.5772 16.667 35.9763 16.1207ZM32.1709 21.6103C31.8835 21.4021 31.7093 21.0639 31.7093 20.6997C31.7093 20.2921 31.9009 19.9539 32.2754 19.685C32.6587 19.4162 33.1377 19.2774 33.7039 19.2774C34.4878 19.2687 35.0975 19.4422 35.533 19.7891C35.533 20.3788 35.2978 20.8905 34.8362 21.3241C34.4181 21.7404 33.8519 21.9745 33.2597 21.9745C32.8677 21.9832 32.4845 21.8531 32.1709 21.6103ZM39.8865 26.25L44.5717 15.5396H43.0477L40.8793 20.8818H40.8532L38.6325 15.5396H37.1085L40.1826 22.5035L38.4409 26.25H39.8865Z" fill="#3C4043"/>
<path d="M19.7188 17.6209C19.7188 17.196 19.684 16.771 19.6143 16.3547H13.7012V18.757H17.0888C16.9495 19.5288 16.4966 20.2226 15.8348 20.6562V22.2173H17.8552C19.0395 21.1332 19.7188 19.5288 19.7188 17.6209Z" fill="#4285F4"/>
<path d="M13.7012 23.7263C15.3907 23.7263 16.8189 23.1712 17.8552 22.2173L15.8348 20.6563C15.2687 21.0378 14.5459 21.2546 13.7012 21.2546C12.064 21.2546 10.6793 20.1533 10.1829 18.679H8.10156V20.292C9.16401 22.3994 11.3325 23.7263 13.7012 23.7263Z" fill="#34A853"/>
<path d="M10.1832 18.6791C9.92194 17.9073 9.92194 17.0661 10.1832 16.2855V14.6812H8.10156C7.20443 16.4416 7.20443 18.523 8.10156 20.2835L10.1832 18.6791Z" fill="#FBBC04"/>
<path d="M13.7012 13.7098C14.5982 13.6924 15.4603 14.0307 16.1048 14.6464L17.8987 12.8599C16.7579 11.8019 15.26 11.2208 13.7012 11.2382C11.3325 11.2382 9.16401 12.5737 8.10156 14.6811L10.1829 16.2942C10.6793 14.8112 12.064 13.7098 13.7012 13.7098Z" fill="#EA4335"/>
</svg>
