<svg width="14" height="20" viewBox="0 0 14 20" fill="none" xmlns="http://www.w3.org/2000/svg">
<path fill-rule="evenodd" clip-rule="evenodd" d="M7.1535 19.5C3.43357 19.5 0.417969 16.4779 0.417968 12.75L0.417968 4.75C0.417968 2.12665 2.54006 -9.29587e-08 5.15779 -2.07629e-07C7.77552 -3.223e-07 9.89761 2.12665 9.89761 4.75L9.89761 12.8929C9.89761 14.4116 8.66903 15.6429 7.1535 15.6429C5.63798 15.6429 4.4094 14.4116 4.4094 12.8929L4.4094 5.03571C4.4094 4.6215 4.74446 4.28571 5.15779 4.28571C5.57112 4.28571 5.90618 4.6215 5.90618 5.03571L5.90618 12.8929C5.90618 13.5832 6.46463 14.1429 7.1535 14.1429C7.84238 14.1429 8.40083 13.5832 8.40083 12.8929L8.40083 4.75C8.40083 2.95507 6.94887 1.5 5.15779 1.5C3.36671 1.5 1.91475 2.95507 1.91475 4.75L1.91475 12.75C1.91475 15.6495 4.26022 18 7.1535 18C10.0468 18 12.3923 15.6495 12.3923 12.75L12.3923 5.03571C12.3923 4.6215 12.7273 4.28571 13.1406 4.28571C13.554 4.28571 13.889 4.6215 13.889 5.03571L13.889 12.75C13.889 16.4779 10.8734 19.5 7.1535 19.5Z" fill="black" fill-opacity="0.5"/>
</svg>
