<svg width="53" height="53" fill="none" xmlns="http://www.w3.org/2000/svg"><path d="M44.719 0H8.28A8.281 8.281 0 0 0 0 8.281V44.72A8.281 8.281 0 0 0 8.281 53H44.72A8.281 8.281 0 0 0 53 44.719V8.28A8.281 8.281 0 0 0 44.719 0Z" fill="#F00073"/><path d="M26.5 15.238h5.631c1.325 0 1.988.33 2.484.496.663.332 1.16.497 1.657.994.497.497.828.994.993 1.656.166.497.332 1.16.497 2.485V32.13c0 1.325-.33 1.988-.497 2.485-.33.662-.496 1.159-.993 1.656-.497.497-.994.828-1.657.994-.496.165-1.159.33-2.484.497H20.87c-1.325 0-1.988-.332-2.485-.497-.662-.332-1.16-.497-1.656-.994-.497-.497-.828-.994-.994-1.656-.165-.497-.331-1.16-.497-2.485V20.87c0-1.325.332-1.988.497-2.485.331-.662.497-1.159.994-1.656.497-.497.994-.828 1.656-.994.497-.165 1.16-.33 2.485-.496h5.63Zm0-2.485h-5.631c-1.491 0-2.485.331-3.313.663a7.23 7.23 0 0 0-2.484 1.656c-.828.828-1.16 1.49-1.657 2.484-.33.828-.496 1.822-.662 3.313V32.13c0 1.49.331 2.485.662 3.313a7.234 7.234 0 0 0 1.657 2.484c.828.828 1.49 1.16 2.484 1.656.828.332 1.822.497 3.313.663H32.13c1.49 0 2.484-.331 3.313-.663a7.231 7.231 0 0 0 2.484-1.656c.828-.828 1.16-1.49 1.656-2.484.331-.828.497-1.822.663-3.313V20.87c0-1.49-.332-2.485-.663-3.313a7.232 7.232 0 0 0-1.656-2.484c-.828-.828-1.49-1.16-2.484-1.656-.829-.332-1.822-.497-3.313-.663H26.5Z" fill="#fff"/><path d="M26.5 19.378c-3.975 0-7.122 3.147-7.122 7.122s3.147 7.122 7.122 7.122 7.122-3.147 7.122-7.122-3.147-7.122-7.122-7.122Zm0 11.76c-2.485 0-4.638-1.988-4.638-4.638 0-2.484 1.988-4.637 4.638-4.637 2.484 0 4.637 1.987 4.637 4.637 0 2.484-2.153 4.637-4.637 4.637ZM33.787 20.869a1.656 1.656 0 1 0 0-3.313 1.656 1.656 0 0 0 0 3.313Z" fill="#fff"/></svg>