<svg width="51" height="35" fill="none" xmlns="http://www.w3.org/2000/svg"><rect x=".5" y=".5" width="50" height="34" rx="5.5" fill="#fff" stroke="#D9D9D9"/><path fill-rule="evenodd" clip-rule="evenodd" d="M25.864 25.02a9.832 9.832 0 0 1-6.45 2.405c-5.49 0-9.942-4.507-9.942-10.066 0-5.56 4.451-10.067 9.943-10.067 2.461 0 4.713.905 6.45 2.405a9.833 9.833 0 0 1 6.45-2.405c5.49 0 9.942 4.507 9.942 10.067 0 5.56-4.451 10.066-9.943 10.066a9.832 9.832 0 0 1-6.45-2.404Z" fill="#ED0006"/><path fill-rule="evenodd" clip-rule="evenodd" d="M25.864 25.02a10.096 10.096 0 0 0 3.494-7.661c0-3.069-1.356-5.816-3.494-7.662a9.832 9.832 0 0 1 6.45-2.405c5.491 0 9.943 4.507 9.943 10.067 0 5.56-4.452 10.066-9.943 10.066a9.832 9.832 0 0 1-6.45-2.404Z" fill="#F9A000"/><path fill-rule="evenodd" clip-rule="evenodd" d="M25.865 9.697a10.096 10.096 0 0 1 3.493 7.662c0 3.068-1.355 5.815-3.493 7.661a10.096 10.096 0 0 1-3.494-7.662c0-3.068 1.356-5.815 3.494-7.661Z" fill="#FF5E00"/></svg>