<svg width="53" height="53" fill="none" xmlns="http://www.w3.org/2000/svg"><path d="M8.281 53A8.281 8.281 0 0 1 0 44.719V8.28A8.281 8.281 0 0 1 8.281 0H44.72A8.281 8.281 0 0 1 53 8.281V44.72A8.281 8.281 0 0 1 44.719 53H8.28Z" fill="#F80"/><path fill-rule="evenodd" clip-rule="evenodd" d="M18.998 18.424c4.42 0 8.024 3.604 8.024 8.025 0 4.469-3.603 8.073-8.024 8.073-4.421 0-8.025-3.604-8.025-8.073 0-4.421 3.604-8.025 8.025-8.025Zm0 4.709a3.322 3.322 0 0 0-3.316 3.316c0 1.874 1.49 3.363 3.316 3.315a3.322 3.322 0 0 0 3.315-3.315 3.322 3.322 0 0 0-3.315-3.316Z" fill="#fff"/><path d="M31.684 18.568c.913 1.441 1.537 3.027 1.922 4.661l4.42-4.565a2.35 2.35 0 0 1 3.317 0 2.35 2.35 0 0 1 0 3.316l-4.421 4.42 4.42 4.422c.433.48.673 1.057.673 1.681 0 .625-.192 1.202-.672 1.682a2.35 2.35 0 0 1-3.316 0l-4.47-4.469c-.384 1.634-1.008 3.22-1.921 4.661-.673 1.106-2.115 1.442-3.22.817-1.105-.72-1.393-2.162-.72-3.267 2.066-3.268 2.066-7.545 0-10.812-.721-1.105-.385-2.595.72-3.268 1.105-.72 2.595-.384 3.268.72Z" fill="#fff"/></svg>