<svg width="52" height="35" fill="none" xmlns="http://www.w3.org/2000/svg"><rect x=".5" y=".5" width="51" height="34" rx="5.5" fill="#fff" stroke="#D9D9D9"/><path fill-rule="evenodd" clip-rule="evenodd" d="M14.857 16.869c0 5.647 4.692 10.252 10.5 10.252.713 0 1.426-.061 2.245-.132.914-.078 1.96-.168 3.285-.197 2.01 0 4.189.712 6.59 2.796.224.219.559-.055.335-.33-2.401-2.905-4.58-3.453-6.758-3.946-2.68-.603-4.077-2.029-5.026-3.673-.168-.33-.28-.275-.28.164-.055.658 0 1.26.112 1.864h-.335c-3.798 0-6.925-3.07-6.925-6.798s3.127-6.798 6.925-6.798 6.926 3.07 6.926 6.798c0 .22 0 .493-.056.768-.559-.11-1.508-.11-2.234-.055-.28 0-.28.11-.056.164 2.234.439 3.798 1.81 4.189 4.331 0 .11.056.11.111.055.894-1.535 1.453-3.344 1.453-5.263 0-5.701-4.692-10.306-10.5-10.306-5.81 0-10.5 4.66-10.5 10.306Zm18.096 4.221c.391.165.559.713.559.987.056.439-.056.658-.224.658-.167 0-.39-.165-.614-.548-.224-.384-.335-.768-.224-.987.168-.11.336-.165.503-.11Zm-2.29 1.7c.224 0 .503.11.782.329.447.384.615.822.391 1.151-.111.165-.39.274-.614.274-.28 0-.559-.11-.726-.274-.447-.384-.559-.932-.28-1.26.056-.11.224-.22.447-.22Z" fill="#F28A1A"/></svg>