<svg width="50" height="34" fill="none" xmlns="http://www.w3.org/2000/svg"><rect x=".5" y=".5" width="49" height="33" rx="5.5" fill="#5A31F4" stroke="#D9D9D9"/><path d="M28.15 15.67c0 2.182-1.543 3.74-3.699 3.74h-2.03a.172.172 0 0 0-.158.104.167.167 0 0 0-.013.065v2.867a.171.171 0 0 1-.17.17h-1.42a.173.173 0 0 1-.159-.105.165.165 0 0 1-.013-.064V12.1a.168.168 0 0 1 .105-.157.172.172 0 0 1 .065-.013h3.802c2.147-.003 3.69 1.555 3.69 3.74Zm-1.773 0c0-1.254-.862-2.171-2.032-2.171H22.42a.17.17 0 0 0-.17.17v3.993a.168.168 0 0 0 .17.169h1.924c1.17.008 2.032-.91 2.032-2.161Zm2.194 4.96a1.995 1.995 0 0 1 .847-1.723c.555-.414 1.421-.628 2.694-.672l1.355-.047v-.397c0-.794-.537-1.13-1.4-1.13-.862 0-1.41.303-1.535.798a.165.165 0 0 1-.163.118H29.03a.17.17 0 0 1-.13-.056.166.166 0 0 1-.04-.136c.198-1.175 1.184-2.068 3.268-2.068 2.218 0 3.018 1.024 3.018 2.979v4.15a.17.17 0 0 1-.173.17h-1.35a.168.168 0 0 1-.17-.169v-.31a.128.128 0 0 0-.221-.09c-.405.437-1.058.753-2.105.753-1.54 0-2.556-.795-2.556-2.17Zm4.896-.899v-.322l-1.755.092c-.925.047-1.462.428-1.462 1.07 0 .58.493.9 1.355.9 1.17 0 1.862-.626 1.862-1.74Zm3.034 6.021V24.55a.17.17 0 0 1 .132-.166.175.175 0 0 1 .075-.002c.206.039.417.059.628.06a1.63 1.63 0 0 0 1.015-.294c.296-.209.513-.509.617-.854l.087-.277a.177.177 0 0 0 0-.114l-2.812-7.16a.171.171 0 0 1 .08-.215.174.174 0 0 1 .08-.02h1.364a.174.174 0 0 1 .16.11l1.91 5.05a.172.172 0 0 0 .163.115.174.174 0 0 0 .164-.114l1.658-5.037a.172.172 0 0 1 .165-.118h1.41a.177.177 0 0 1 .144.076.173.173 0 0 1 .02.16l-3.008 7.952c-.692 1.848-1.88 2.32-3.187 2.32a2.56 2.56 0 0 1-.735-.087.175.175 0 0 1-.13-.183ZM11.356 11.333a7.035 7.035 0 0 0-4.828 1.868.303.303 0 0 0-.038.406l.81 1.098a.31.31 0 0 0 .361.11.31.31 0 0 0 .113-.073 5.045 5.045 0 0 1 3.589-1.454c2.78 0 4.23 2.074 4.23 4.122 0 2.227-1.524 3.794-3.716 3.825-1.694 0-2.97-1.114-2.97-2.584a2.494 2.494 0 0 1 .936-1.938.303.303 0 0 0 .042-.423l-.852-1.066a.31.31 0 0 0-.335-.104.31.31 0 0 0-.108.058 4.47 4.47 0 0 0-1.235 1.548c-.29.6-.442 1.258-.442 1.925 0 2.531 2.17 4.517 4.949 4.534h.037c3.3-.043 5.686-2.466 5.686-5.779 0-2.941-2.185-6.073-6.228-6.073Z" fill="#fff"/></svg>