<svg width="37" height="36" fill="none" xmlns="http://www.w3.org/2000/svg"><path d="M19.954 2.002c-.648-1.192-2.26-1.192-2.908 0l-4.562 8.393c-.32.59-.873.99-1.503 1.093l-8.55 1.378c-1.435.232-1.94 2.167-.82 3.156l6.368 5.634c.59.521.867 1.344.724 2.147l-1.666 9.34c-.264 1.477 1.188 2.624 2.434 1.924l8.05-4.525a1.984 1.984 0 0 1 1.958 0l8.05 4.525c1.246.7 2.698-.447 2.434-1.923l-1.666-9.341c-.143-.803.134-1.626.724-2.147l6.369-5.634c1.118-.989.614-2.924-.822-3.156l-8.549-1.378a2.104 2.104 0 0 1-1.503-1.093l-4.562-8.393Z" fill="#fff" stroke="#F6CA47" stroke-linejoin="round"/></svg>