<svg width="20" height="20" fill="F6CA47" xmlns="http://www.w3.org/2000/svg"><path d="M10.83.523c-.37-.697-1.29-.697-1.66 0L6.561 5.436c-.182.345-.498.58-.859.64l-4.885.806c-.82.136-1.108 1.269-.47 1.848l3.64 3.297c.337.305.495.787.413 1.257L3.45 18.75c-.15.864.68 1.535 1.391 1.126l4.6-2.65a1.11 1.11 0 0 1 1.12 0l4.6 2.65c.711.41 1.541-.262 1.39-1.126l-.952-5.468c-.081-.47.077-.95.414-1.256l3.64-3.297c.638-.58.35-1.712-.47-1.848l-4.885-.807a1.205 1.205 0 0 1-.86-.639L10.832.523Z" fill="#F6CA47"/></svg>