<svg width="53" height="53" fill="none" xmlns="http://www.w3.org/2000/svg"><path d="M44.719 0H8.28A8.281 8.281 0 0 0 0 8.281V44.72A8.281 8.281 0 0 0 8.281 53H44.72A8.281 8.281 0 0 0 53 44.719V8.28A8.281 8.281 0 0 0 44.719 0Z" fill="#08C"/><path d="M13.415 26.017c7.114-3.1 11.858-5.143 14.23-6.13 6.777-2.818 8.186-3.308 9.103-3.324.202-.004.654.046.946.284.247.2.315.47.347.66.033.19.073.623.041.961-.367 3.858-1.956 13.222-2.765 17.543-.342 1.829-1.015 2.442-1.667 2.502-1.417.13-2.493-.936-3.866-1.836-2.147-1.408-3.36-2.284-5.445-3.658-2.41-1.588-.848-2.46.525-3.886.36-.373 6.603-6.052 6.724-6.568.015-.064.029-.304-.114-.431-.142-.127-.353-.083-.505-.049-.215.049-3.646 2.317-10.293 6.803-.973.669-1.855.995-2.646.978-.871-.02-2.547-.493-3.793-.898-1.528-.497-2.743-.76-2.637-1.603.055-.44.66-.889 1.816-1.348Z" fill="#fff"/></svg>