<svg width="53" height="53" fill="none" xmlns="http://www.w3.org/2000/svg"><path d="M0 8.281A8.281 8.281 0 0 1 8.281 0H44.72A8.281 8.281 0 0 1 53 8.281V44.72A8.281 8.281 0 0 1 44.719 53H8.28A8.281 8.281 0 0 1 0 44.719V8.28Z" fill="#000"/><path d="M24.013 23.685v-1.032a8.15 8.15 0 0 0-1.084-.076c-4.424-.006-8.023 3.596-8.023 8.03a8.028 8.028 0 0 0 3.428 6.578 8 8 0 0 1-2.155-5.47c0-4.369 3.498-7.93 7.834-8.03Z" fill="#25F4EE"/><path d="M24.207 35.382a3.669 3.669 0 0 0 3.658-3.532l.006-17.492h3.193c-.065-.36-.1-.73-.1-1.108h-4.36L26.6 30.742a3.669 3.669 0 0 1-3.658 3.531c-.613 0-1.19-.153-1.703-.424a3.641 3.641 0 0 0 2.97 1.533ZM37.031 20.295v-.973a6 6 0 0 1-3.304-.984 6.06 6.06 0 0 0 3.304 1.957Z" fill="#25F4EE"/><path d="M33.727 18.338a6.03 6.03 0 0 1-1.49-3.98H31.07a6.047 6.047 0 0 0 2.657 3.98ZM22.935 26.933a3.67 3.67 0 0 0-3.663 3.667c0 1.41.8 2.636 1.967 3.249a3.63 3.63 0 0 1-.695-2.14 3.67 3.67 0 0 1 3.664-3.667c.377 0 .742.064 1.084.17v-4.456a8.15 8.15 0 0 0-1.084-.077c-.065 0-.124.006-.189.006v3.42a3.689 3.689 0 0 0-1.084-.172Z" fill="#FE2C55"/><path d="M37.03 20.295v3.39c-2.262 0-4.359-.725-6.067-1.951v8.872c0 4.428-3.599 8.036-8.029 8.036a7.994 7.994 0 0 1-4.6-1.457 8.014 8.014 0 0 0 5.873 2.565c4.424 0 8.029-3.602 8.029-8.035v-8.873a10.375 10.375 0 0 0 6.067 1.951v-4.362c-.442 0-.866-.047-1.273-.136Z" fill="#FE2C55"/><path d="M30.964 30.606v-8.873a10.375 10.375 0 0 0 6.067 1.952v-3.39a6.06 6.06 0 0 1-3.304-1.957 6.096 6.096 0 0 1-2.663-3.98H27.87l-.006 17.492a3.669 3.669 0 0 1-3.657 3.532 3.68 3.68 0 0 1-2.975-1.527 3.68 3.68 0 0 1-1.968-3.249 3.67 3.67 0 0 1 3.664-3.667c.377 0 .742.065 1.084.171v-3.42c-4.335.095-7.834 3.656-7.834 8.025a8.01 8.01 0 0 0 2.156 5.47 7.994 7.994 0 0 0 4.6 1.457c4.424 0 8.029-3.608 8.029-8.036Z" fill="#fff"/></svg>