<svg width="53" height="53" fill="none" xmlns="http://www.w3.org/2000/svg"><path d="M44.719 0H8.28A8.281 8.281 0 0 0 0 8.281V44.72A8.281 8.281 0 0 0 8.281 53H44.72A8.281 8.281 0 0 0 53 44.719V8.28A8.281 8.281 0 0 0 44.719 0Z" fill="#1DA1F2"/><path d="M39.75 18.219c-.994.497-1.987.662-3.147.828 1.16-.663 1.988-1.656 2.319-2.981-.994.662-2.153.993-3.478 1.325-.994-.994-2.485-1.657-3.975-1.657-3.478 0-6.128 3.313-5.3 6.625-4.472-.165-8.447-2.318-11.263-5.63-1.49 2.483-.662 5.63 1.656 7.287-.828 0-1.656-.332-2.484-.663 0 2.484 1.822 4.803 4.306 5.466-.828.165-1.656.331-2.484.165.662 2.153 2.65 3.81 5.134 3.81-1.987 1.49-4.968 2.319-7.784 1.987 2.484 1.49 5.3 2.485 8.281 2.485 10.103 0 15.735-8.447 15.403-16.232a7.654 7.654 0 0 0 2.816-2.815Z" fill="#fff"/></svg>