<svg width="50" height="35" fill="none" xmlns="http://www.w3.org/2000/svg"><rect x=".5" y=".5" width="49" height="34" rx="5.5" fill="#fff" stroke="#D9D9D9"/><path fill-rule="evenodd" clip-rule="evenodd" d="M15.18 23.71h-3.03l-2.271-8.846c-.108-.407-.337-.767-.674-.936a9.72 9.72 0 0 0-2.776-.937v-.34h4.88a1.28 1.28 0 0 1 1.262 1.106l1.178 6.38 3.028-7.486h2.945L15.179 23.71Zm6.226 0h-2.861L20.9 12.65h2.861l-2.355 11.06Zm6.056-7.996c.084-.595.59-.936 1.179-.936a5.236 5.236 0 0 1 2.776.51l.505-2.38a7.113 7.113 0 0 0-2.608-.512c-2.776 0-4.797 1.532-4.797 3.658 0 1.617 1.431 2.466 2.442 2.978 1.092.51 1.513.85 1.43 1.36 0 .766-.843 1.106-1.683 1.106-1.01 0-2.02-.255-2.945-.68l-.505 2.382c1.01.424 2.103.595 3.113.595 3.113.084 5.048-1.446 5.048-3.743 0-2.893-3.955-3.062-3.955-4.338ZM41.43 23.71l-2.272-11.06h-2.44c-.505 0-1.01.341-1.178.851L31.333 23.71h2.945l.588-1.616h3.618l.337 1.616h2.608Zm-4.29-8.081.84 4.168h-2.356l1.515-4.168Z" fill="#172B85"/></svg>