<svg width="53" height="53" fill="none" xmlns="http://www.w3.org/2000/svg"><path d="M0 25.44C0 13.444 0 7.455 3.71 3.71 7.473 0 13.462 0 25.44 0h2.12c11.996 0 17.985 0 21.73 3.71C53 7.473 53 13.462 53 25.44v2.12c0 11.996 0 17.985-3.71 21.73C45.527 53 39.538 53 27.56 53h-2.12c-11.996 0-17.985 0-21.73-3.71C0 45.527 0 39.538 0 27.56v-2.12Z" fill="#07F"/><path d="M28.196 38.178c-12.084 0-18.974-8.268-19.257-22.048h6.078c.194 10.105 4.646 14.38 8.18 15.264V16.13h5.706v8.71c3.48-.372 7.155-4.346 8.392-8.728h5.688a16.835 16.835 0 0 1-7.738 11.007 17.436 17.436 0 0 1 9.063 11.059h-6.272c-1.342-4.187-4.699-7.438-9.133-7.88v7.88h-.707Z" fill="#F0F0F0"/></svg>