<svg width="27" height="27" fill="none" xmlns="http://www.w3.org/2000/svg"><path d="M16.055 16.055c-2.082 2.149-2.233 4.827-2.413 10.695 5.47 0 9.247-.019 11.196-1.912 1.893-1.95 1.912-5.905 1.912-11.196-5.868.19-8.546.331-10.695 2.413ZM.25 13.642c0 5.29.019 9.247 1.912 11.196 1.95 1.893 5.726 1.912 11.196 1.912-.19-5.868-.331-8.546-2.413-10.695C8.796 13.973 6.118 13.822.25 13.642ZM13.358.25c-5.46 0-9.247.019-11.196 1.912C.269 4.112.25 8.068.25 13.358c5.868-.19 8.546-.331 10.695-2.413C13.027 8.796 13.178 6.118 13.358.25Zm2.697 10.695C13.973 8.796 13.822 6.118 13.642.25c5.47 0 9.247.019 11.196 1.912 1.893 1.95 1.912 5.906 1.912 11.196-5.868-.19-8.546-.331-10.695-2.413Z" fill="#2C3036"/><path d="M26.75 13.642v-.284c-5.868-.19-8.546-.331-10.695-2.413C13.973 8.796 13.822 6.118 13.642.25h-.284c-.19 5.868-.331 8.546-2.413 10.695C8.796 13.027 6.118 13.178.25 13.358v.284c5.868.19 8.546.331 10.695 2.413 2.082 2.149 2.233 4.827 2.413 10.695h.284c.19-5.868.331-8.546 2.413-10.695 2.149-2.082 4.827-2.233 10.695-2.413Z" fill="#F4F4F4"/></svg>