<svg width="53" height="53" fill="none" xmlns="http://www.w3.org/2000/svg"><path d="M44.719 0H8.28A8.281 8.281 0 0 0 0 8.281V44.72A8.281 8.281 0 0 0 8.281 53H44.72A8.281 8.281 0 0 0 53 44.719V8.28A8.281 8.281 0 0 0 44.719 0Z" fill="red"/><path d="M39.087 20.04c-.33-1.159-1.159-1.987-2.318-2.318-1.988-.497-10.435-.497-10.435-.497s-8.28 0-10.434.497c-1.16.331-1.988 1.16-2.319 2.319-.331 2.153-.331 6.459-.331 6.459s0 4.306.497 6.46c.331 1.159 1.16 1.987 2.319 2.318 1.987.497 10.434.497 10.434.497s8.281 0 10.434-.497c1.16-.331 1.988-1.16 2.32-2.319.496-2.153.496-6.459.496-6.459s0-4.306-.663-6.46ZM23.85 30.476v-7.95l6.956 3.975-6.956 3.975Z" fill="#fff"/></svg>